<svg width="24" height="24" viewBox="0 0 24 24" fill="none" xmlns="http://www.w3.org/2000/svg">
<path d="M12 0C5.38293 0 0 5.38293 0 12C0 18.6171 5.38293 24 12 24C18.6171 24 24 18.6171 24 12C24 5.38293 18.6171 0 12 0Z" fill="#2196F3"/>
<path d="M18.082 9.45679L11.582 15.9567C11.387 16.1517 11.131 16.2498 10.875 16.2498C10.619 16.2498 10.363 16.1517 10.168 15.9567L6.91809 12.7067C6.52698 12.3158 6.52698 11.6837 6.91809 11.2928C7.30902 10.9017 7.94092 10.9017 8.33203 11.2928L10.875 13.8358L16.6681 8.04285C17.059 7.65173 17.6909 7.65173 18.082 8.04285C18.473 8.43378 18.473 9.06567 18.082 9.45679Z" fill="#FAFAFA"/>
</svg>
