<svg width="24" height="24" viewBox="0 0 24 24" fill="none" xmlns="http://www.w3.org/2000/svg">
<path d="M15.75 8.25007V1.50007C15.7496 1.37911 15.72 1.26005 15.6636 1.15302C15.6073 1.046 15.5259 0.954187 15.4264 0.885425C15.3269 0.816663 15.2122 0.772988 15.0922 0.758125C14.9721 0.743262 14.8503 0.757652 14.737 0.800068L6.487 5.07007C6.34434 5.12348 6.22133 5.21907 6.13434 5.34412C6.04734 5.46917 6.00048 5.61774 6 5.77007V9.75007" stroke="#484848" stroke-width="1.5" stroke-linecap="round" stroke-linejoin="round"/>
<path d="M13.5 5.25H15.75" stroke="#484848" stroke-width="1.5" stroke-linecap="round" stroke-linejoin="round"/>
<path d="M12 8.25H15.75" stroke="#484848" stroke-width="1.5" stroke-linecap="round" stroke-linejoin="round"/>
<path d="M0.75 12.75H3" stroke="#484848" stroke-width="1.5" stroke-linecap="round" stroke-linejoin="round"/>
<path d="M0.75 15.75H4.5" stroke="#484848" stroke-width="1.5" stroke-linecap="round" stroke-linejoin="round"/>
<path d="M8.25 4.15598V0.750977" stroke="#484848" stroke-width="1.5" stroke-linecap="round" stroke-linejoin="round"/>
<path d="M8.25 23.25V11.25C8.25 10.8522 8.09196 10.4706 7.81066 10.1893C7.52936 9.90804 7.14782 9.75 6.75 9.75H2.25C1.85218 9.75 1.47064 9.90804 1.18934 10.1893C0.908035 10.4706 0.75 10.8522 0.75 11.25V23.25H9.75" stroke="#484848" stroke-width="1.5" stroke-linecap="round" stroke-linejoin="round"/>
<path d="M18.75 14.25H16.717C16.4054 14.2502 16.1036 14.3588 15.8634 14.5572C15.6231 14.7556 15.4594 15.0314 15.4003 15.3373C15.3412 15.6432 15.3903 15.9602 15.5393 16.2338C15.6884 16.5074 15.9279 16.7207 16.217 16.837L18.281 17.663C18.57 17.7793 18.8096 17.9926 18.9586 18.2662C19.1076 18.5398 19.1568 18.8568 19.0977 19.1627C19.0385 19.4686 18.8748 19.7444 18.6346 19.9428C18.3943 20.1412 18.0925 20.2498 17.781 20.25H15.75" stroke="#484848" stroke-width="1.5" stroke-linecap="round" stroke-linejoin="round"/>
<path d="M17.25 14.25V13.5" stroke="#484848" stroke-width="1.5" stroke-linecap="round" stroke-linejoin="round"/>
<path d="M17.25 21V20.25" stroke="#484848" stroke-width="1.5" stroke-linecap="round" stroke-linejoin="round"/>
<path d="M17.25 23.25C20.5637 23.25 23.25 20.5637 23.25 17.25C23.25 13.9363 20.5637 11.25 17.25 11.25C13.9363 11.25 11.25 13.9363 11.25 17.25C11.25 20.5637 13.9363 23.25 17.25 23.25Z" stroke="#484848" stroke-width="1.5" stroke-linecap="round" stroke-linejoin="round"/>
</svg>
